<svg xmlns="http://www.w3.org/2000/svg" aria-hidden="true" style="position:absolute;width:0;height:0;overflow:hidden">
  <defs>
    <symbol id="icon-menu" viewBox="0 0 32 32">
      <path d="M5.333 8h21.333v2.667H5.333V8zm0 6.667h21.333v2.667H5.333v-2.667zm0 6.666h21.333V24H5.333v-2.667z"/>
    </symbol>
    <symbol id="icon-social-x" viewBox="0 0 32 32">
      <path d="M22.901 5.657h3.68l-8.04 9.037L28 26.991h-7.406l-5.801-7.458-6.637 7.458H4.474l8.6-9.666L4 5.657h7.594l5.243 6.817 6.064-6.817zM21.61 24.824h2.039L10.486 7.709H8.298L21.61 24.824z"/>
    </symbol>
    <symbol id="icon-facebook" viewBox="0 0 31 32">
      <path d="M28.16 16.405c0-7.409-5.731-13.415-12.8-13.415S2.56 8.996 2.56 16.405c0 6.696 4.681 12.245 10.8 13.252v-9.374h-3.25v-3.878h3.25V13.45c0-3.362 1.911-5.219 4.835-5.219 1.401 0 2.865.262 2.865.262v3.301h-1.614c-1.59 0-2.086 1.034-2.086 2.095v2.516h3.55l-.567 3.878H17.36v9.374c6.119-1.006 10.8-6.556 10.8-13.252z"/>
    </symbol>
    <symbol id="icon-instagram" viewBox="0 0 31 32">
      <path d="M15.358 6.161c3.078 0 3.442.014 4.652.071 1.125.052 1.732.248 2.137.412.536.216.922.478 1.323.895.405.422.652.82.864 1.378.158.422.346 1.059.396 2.226.054 1.266.068 1.645.068 4.847s-.014 3.585-.068 4.847c-.05 1.172-.238 1.804-.396 2.226a3.721 3.721 0 0 1-.86 1.378 3.611 3.611 0 0 1-1.323.9c-.405.164-1.017.361-2.137.412-1.215.056-1.58.071-4.653.071s-3.442-.014-4.653-.071c-1.125-.052-1.732-.248-2.137-.412a3.558 3.558 0 0 1-1.323-.895 3.784 3.784 0 0 1-.864-1.378c-.158-.422-.346-1.06-.396-2.226-.054-1.266-.068-1.645-.068-4.847s.014-3.585.068-4.847c.05-1.172.238-1.804.396-2.226.207-.558.459-.961.86-1.378a3.611 3.611 0 0 1 1.323-.9c.405-.164 1.017-.361 2.137-.412 1.21-.056 1.575-.071 4.653-.071h.001zm0-2.16c-3.127 0-3.518.014-4.747.071-1.224.056-2.065.262-2.794.558a5.596 5.596 0 0 0-2.042 1.387A5.908 5.908 0 0 0 4.443 8.14c-.284.764-.482 1.636-.536 2.91-.054 1.285-.068 1.692-.068 4.949s.014 3.665.068 4.945c.054 1.275.252 2.151.536 2.91a5.885 5.885 0 0 0 1.332 2.128 5.624 5.624 0 0 0 2.038 1.383c.734.295 1.57.502 2.794.558 1.228.056 1.62.071 4.747.071s3.519-.014 4.747-.071c1.224-.056 2.065-.263 2.794-.558.756-.304 1.4-.717 2.038-1.383s1.035-1.336 1.328-2.123c.284-.764.482-1.635.536-2.91.054-1.279.068-1.687.068-4.945s-.014-3.665-.068-4.945c-.054-1.275-.252-2.151-.536-2.91a5.667 5.667 0 0 0-1.318-2.133 5.624 5.624 0 0 0-2.038-1.383c-.734-.295-1.57-.502-2.794-.558C18.878 4.014 18.487 4 15.36 4l-.001.001z"/>
      <path d="M15.358 9.836c-3.266 0-5.917 2.76-5.917 6.163s2.65 6.163 5.917 6.163 5.917-2.76 5.917-6.163-2.65-6.163-5.917-6.163zm0 10.161c-2.119 0-3.838-1.79-3.838-3.998s1.718-3.998 3.838-3.998c2.119 0 3.838 1.79 3.838 3.998s-1.718 3.998-3.838 3.998zM22.889 9.592c0 .795-.618 1.439-1.381 1.439s-1.381-.644-1.381-1.439.619-1.439 1.381-1.439c.763 0 1.381.644 1.381 1.439z"/>
    </symbol>
    <symbol id="icon-map" viewBox="0 0 31 32">
      <path d="M15.36 18.667c2.824 0 5.12-2.392 5.12-5.333s-2.296-5.333-5.12-5.333c-2.824 0-5.12 2.392-5.12 5.333s2.296 5.333 5.12 5.333zm0-8c1.412 0 2.56 1.196 2.56 2.667s-1.148 2.667-2.56 2.667-2.56-1.196-2.56-2.667c0-1.471 1.148-2.667 2.56-2.667z"/>
      <path d="M14.618 29.085c.217.161.476.248.742.248s.526-.087.742-.248c.389-.287 9.535-7.165 9.498-15.752 0-5.881-4.594-10.667-10.24-10.667S5.12 7.451 5.12 13.326c-.037 8.593 9.108 15.472 9.498 15.759zm.742-23.752c4.236 0 7.68 3.588 7.68 8.007.027 5.917-5.617 11.231-7.68 12.973-2.062-1.744-7.707-7.059-7.68-12.98 0-4.412 3.444-8 7.68-8z"/>
    </symbol>
    <symbol id="icon-phone" viewBox="0 0 31 32">
      <path d="M22.665 16.391c-.119-.124-.26-.222-.415-.289a1.236 1.236 0 0 0-1.395.289l-2.04 2.125c-.946-.293-2.711-.96-3.83-2.125s-1.759-3.004-2.04-3.989l2.04-2.125a1.357 1.357 0 0 0 .376-.942 1.369 1.369 0 0 0-.376-.942L9.865 3.06c-.119-.124-.26-.222-.415-.289a1.236 1.236 0 0 0-1.395.289L4.584 6.676a2.727 2.727 0 0 0-.75 1.913c.029 1.899.512 8.493 5.501 13.691s11.32 5.699 13.144 5.731h.036c.676 0 1.315-.277 1.798-.781l3.471-3.616a1.357 1.357 0 0 0 .376-.942 1.369 1.369 0 0 0-.376-.942l-5.12-5.335zm-.162 8.949c-1.597-.028-7.063-.475-11.357-4.949C6.838 15.903 6.42 10.19 6.395 8.559l2.566-2.673 3.31 3.448-1.655 1.724a1.378 1.378 0 0 0-.348 1.216c.031.153.782 3.789 2.907 6.003s5.615 2.996 5.763 3.028c.208.047.424.038.628-.025s.39-.179.539-.336l1.656-1.724 3.31 3.448-2.568 2.673z"/>
    </symbol>
    <symbol id="icon-double-right" viewBox="0 0 31 32">
      <path d="M13.179 10.28 18.715 16l-5.536 5.72 1.802 1.893L22.35 16l-7.369-7.613-1.802 1.893z"/>
      <path d="M8.581 8.387 6.779 10.28 12.315 16l-5.536 5.72 1.802 1.893L15.95 16 8.581 8.387z"/>
    </symbol>
    <symbol id="icon-map-pin" viewBox="0 0 31 32">
      <path d="M15.36 22.667 16.64 20v-6.856c2.203-.596 3.84-2.667 3.84-5.144 0-2.941-2.296-5.333-5.12-5.333S10.24 5.059 10.24 8c0 2.477 1.637 4.548 3.84 5.144V20l1.28 2.667zM12.8 8c0-1.471 1.148-2.667 2.56-2.667S17.92 6.529 17.92 8c0 1.471-1.148 2.667-2.56 2.667S12.8 9.471 12.8 8z"/>
      <path d="m20.822 14.084-.682 2.571c3.316.955 5.46 2.791 5.46 4.679 0 2.523-4.205 5.333-10.24 5.333S5.12 23.856 5.12 21.334c0-1.888 2.144-3.724 5.462-4.68L9.9 14.083c-4.527 1.304-7.34 4.081-7.34 7.251 0 4.485 5.623 8 12.8 8s12.8-3.515 12.8-8c0-3.169-2.812-5.947-7.338-7.249z"/>
    </symbol>
    <symbol id="icon-right" viewBox="0 0 31 32">
      <path d="m12.425 22.691 7.305-7.305-7.305-7.305-1.81 1.81 5.495 5.495-5.495 5.495 1.81 1.81z"/>
    </symbol>
    <symbol id="icon-close" viewBox="0 0 32 32">
      <path d="m21.589 8.459-5.657 5.656-5.656-5.656-1.885 1.885L14.047 16l-5.656 5.656 1.885 1.885 5.656-5.656 5.657 5.656 1.885-1.885L17.818 16l5.656-5.656-1.885-1.885z"/>
    </symbol>
    <symbol id="icon-envelope" viewBox="0 0 31 32">
      <path d="M25.6 5.333H5.12C3.708 5.333 2.56 6.529 2.56 8v16c0 1.471 1.148 2.667 2.56 2.667H25.6c1.412 0 2.56-1.196 2.56-2.667V8c0-1.471-1.148-2.667-2.56-2.667zM25.6 8v.681l-10.24 8.297L5.12 8.682v-.683H25.6zM5.12 24V12.059l9.454 7.66c.224.183.501.283.786.283s.562-.1.786-.283l9.454-7.66L25.603 24H5.12z"/>
    </symbol>
    <symbol id="icon-star-filled" viewBox="0 0 31 32">
      <path d="M14.171 5.904c.44-1.045 1.939-1.045 2.379 0l2.597 6.168c.186.441.605.742 1.086.78l6.74.534c1.142.09 1.605 1.498.735 2.235l-5.136 4.346c-.367.31-.527.798-.415 1.262l1.569 6.498c.266 1.101-.946 1.971-1.924 1.381l-5.771-3.482a1.3 1.3 0 0 0-1.343 0l-5.771 3.482c-.978.59-2.19-.28-1.924-1.381l1.569-6.498a1.264 1.264 0 0 0-.415-1.262l-5.136-4.346c-.87-.736-.407-2.144.735-2.235l6.741-.534a1.286 1.286 0 0 0 1.086-.78l2.597-6.168z"/>
    </symbol>
    <symbol id="icon-star-outline" viewBox="0 0 31 32">
      <path stroke-width="1.28" d="M14.76 6.152c.22-.523.98-.523 1.2 0l2.596 6.168c.28.664.909 1.113 1.626 1.17l6.74.534a.628.628 0 0 1 .372 1.107l-5.136 4.346c-.55.465-.793 1.2-.624 1.901l1.57 6.498c.127.527-.463.99-.973.683h-.001l-5.769-3.481a1.945 1.945 0 0 0-2.005 0l-5.77 3.481c-.51.308-1.1-.155-.973-.683l1.57-6.498a1.905 1.905 0 0 0-.624-1.901l-5.136-4.346a.629.629 0 0 1 .373-1.107l6.74-.534a1.927 1.927 0 0 0 1.626-1.17l2.596-6.168z"/>
    </symbol>
  </defs>
</svg>
