<svg xmlns="http://www.w3.org/2000/svg" aria-hidden="true" style="position:absolute;width:0;height:0;overflow:hidden">
    <defs>
        <symbol id="icon-menu" viewBox="0 0 32 32">
            <path d="M5.333 8h21.333v2.667H5.333V8zm0 6.667h21.333v2.667H5.333v-2.667zm0 6.666h21.333V24H5.333v-2.667z"/>
        </symbol>
        <symbol id="icon-social-x" viewBox="0 0 32 32">
            <path d="M22.901 5.657h3.68l-8.04 9.037L28 26.991h-7.406l-5.801-7.458-6.637 7.458H4.474l8.6-9.666L4 5.657h7.594l5.243 6.817 6.064-6.817zM21.61 24.824h2.039L10.486 7.709H8.298L21.61 24.824z"/>
        </symbol>
        <symbol id="icon-facebook" viewBox="0 0 31 32">
            <path d="M28.16 16.405c0-7.409-5.731-13.415-12.8-13.415S2.56 8.996 2.56 16.405c0 6.696 4.681 12.245 10.8 13.252v-9.374h-3.25v-3.878h3.25V13.45c0-3.362 1.911-5.219 4.835-5.219 1.401 0 2.865.262 2.865.262v3.301h-1.614c-1.59 0-2.086 1.034-2.086 2.095v2.516h3.55l-.567 3.878H17.36v9.374c6.119-1.006 10.8-6.556 10.8-13.252z"/>
        </symbol>
        <symbol id="icon-instagram" viewBox="0 0 31 32">
            <path d="M15.358 6.161c3.078 0 3.442.014 4.652.071 1.125.052 1.732.248 2.137.412.536.216.922.478 1.323.895.405.422.652.82.864 1.378.158.422.346 1.059.396 2.226.054 1.266.068 1.645.068 4.847s-.014 3.585-.068 4.847c-.05 1.172-.238 1.804-.396 2.226a3.721 3.721 0 0 1-.86 1.378 3.611 3.611 0 0 1-1.323.9c-.405.164-1.017.361-2.137.412-1.215.056-1.58.071-4.653.071s-3.442-.014-4.653-.071c-1.125-.052-1.732-.248-2.137-.412a3.558 3.558 0 0 1-1.323-.895 3.784 3.784 0 0 1-.864-1.378c-.158-.422-.346-1.06-.396-2.226-.054-1.266-.068-1.645-.068-4.847s.014-3.585.068-4.847c.05-1.172.238-1.804.396-2.226.207-.558.459-.961.86-1.378a3.611 3.611 0 0 1 1.323-.9c.405-.164 1.017-.361 2.137-.412 1.21-.056 1.575-.071 4.653-.071h.001zm0-2.16c-3.127 0-3.518.014-4.747.071-1.224.056-2.065.262-2.794.558a5.596 5.596 0 0 0-2.042 1.387A5.908 5.908 0 0 0 4.443 8.14c-.284.764-.482 1.636-.536 2.91-.054 1.285-.068 1.692-.068 4.949s.014 3.665.068 4.945c.054 1.275.252 2.151.536 2.91a5.885 5.885 0 0 0 1.332 2.128 5.624 5.624 0 0 0 2.038 1.383c.734.295 1.57.502 2.794.558 1.228.056 1.62.071 4.747.071s3.519-.014 4.747-.071c1.224-.056 2.065-.263 2.794-.558.756-.304 1.4-.717 2.038-1.383s1.035-1.336 1.328-2.123c.284-.764.482-1.635.536-2.91.054-1.279.068-1.687.068-4.945s-.014-3.665-.068-4.945c-.054-1.275-.252-2.151-.536-2.91a5.667 5.667 0 0 0-1.318-2.133 5.624 5.624 0 0 0-2.038-1.383c-.734-.295-1.57-.502-2.794-.558C18.878 4.014 18.487 4 15.36 4l-.001.001z"/>
            <path d="M15.358 9.836c-3.266 0-5.917 2.76-5.917 6.163s2.65 6.163 5.917 6.163 5.917-2.76 5.917-6.163-2.65-6.163-5.917-6.163zm0 10.161c-2.119 0-3.838-1.79-3.838-3.998s1.718-3.998 3.838-3.998c2.119 0 3.838 1.79 3.838 3.998s-1.718 3.998-3.838 3.998zM22.889 9.592c0 .795-.618 1.439-1.381 1.439s-1.381-.644-1.381-1.439.619-1.439 1.381-1.439c.763 0 1.381.644 1.381 1.439z"/>
        </symbol>
        <symbol id="icon-map" viewBox="0 0 31 32">
            <path d="M15.36 18.667c2.824 0 5.12-2.392 5.12-5.333s-2.296-5.333-5.12-5.333c-2.824 0-5.12 2.392-5.12 5.333s2.296 5.333 5.12 5.333zm0-8c1.412 0 2.56 1.196 2.56 2.667s-1.148 2.667-2.56 2.667-2.56-1.196-2.56-2.667c0-1.471 1.148-2.667 2.56-2.667z"/>
            <path d="M14.618 29.085c.217.161.476.248.742.248s.526-.087.742-.248c.389-.287 9.535-7.165 9.498-15.752 0-5.881-4.594-10.667-10.24-10.667S5.12 7.451 5.12 13.326c-.037 8.593 9.108 15.472 9.498 15.759zm.742-23.752c4.236 0 7.68 3.588 7.68 8.007.027 5.917-5.617 11.231-7.68 12.973-2.062-1.744-7.707-7.059-7.68-12.98 0-4.412 3.444-8 7.68-8z"/>
        </symbol>
        <symbol id="icon-phone" viewBox="0 0 31 32">
            <path d="M22.665 16.391c-.119-.124-.26-.222-.415-.289a1.236 1.236 0 0 0-1.395.289l-2.04 2.125c-.946-.293-2.711-.96-3.83-2.125s-1.759-3.004-2.04-3.989l2.04-2.125a1.357 1.357 0 0 0 .376-.942 1.369 1.369 0 0 0-.376-.942L9.865 3.06c-.119-.124-.26-.222-.415-.289a1.236 1.236 0 0 0-1.395.289L4.584 6.676a2.727 2.727 0 0 0-.75 1.913c.029 1.899.512 8.493 5.501 13.691s11.32 5.699 13.144 5.731h.036c.676 0 1.315-.277 1.798-.781l3.471-3.616a1.357 1.357 0 0 0 .376-.942 1.369 1.369 0 0 0-.376-.942l-5.12-5.335zm-.162 8.949c-1.597-.028-7.063-.475-11.357-4.949C6.838 15.903 6.42 10.19 6.395 8.559l2.566-2.673 3.31 3.448-1.655 1.724a1.378 1.378 0 0 0-.348 1.216c.031.153.782 3.789 2.907 6.003s5.615 2.996 5.763 3.028c.208.047.424.038.628-.025s.39-.179.539-.336l1.656-1.724 3.31 3.448-2.568 2.673z"/>
        </symbol>
        <symbol id="icon-double-right" viewBox="0 0 31 32">
            <path d="M13.179 10.28 18.715 16l-5.536 5.72 1.802 1.893L22.35 16l-7.369-7.613-1.802 1.893z"/>
            <path d="M8.581 8.387 6.779 10.28 12.315 16l-5.536 5.72 1.802 1.893L15.95 16 8.581 8.387z"/>
        </symbol>
        <symbol id="icon-map-pin" viewBox="0 0 31 32">
            <path d="M15.36 22.667 16.64 20v-6.856c2.203-.596 3.84-2.667 3.84-5.144 0-2.941-2.296-5.333-5.12-5.333S10.24 5.059 10.24 8c0 2.477 1.637 4.548 3.84 5.144V20l1.28 2.667zM12.8 8c0-1.471 1.148-2.667 2.56-2.667S17.92 6.529 17.92 8c0 1.471-1.148 2.667-2.56 2.667S12.8 9.471 12.8 8z"/>
            <path d="m20.822 14.084-.682 2.571c3.316.955 5.46 2.791 5.46 4.679 0 2.523-4.205 5.333-10.24 5.333S5.12 23.856 5.12 21.334c0-1.888 2.144-3.724 5.462-4.68L9.9 14.083c-4.527 1.304-7.34 4.081-7.34 7.251 0 4.485 5.623 8 12.8 8s12.8-3.515 12.8-8c0-3.169-2.812-5.947-7.338-7.249z"/>
        </symbol>
        <symbol id="icon-right" viewBox="0 0 31 32">
            <path d="m12.425 22.691 7.305-7.305-7.305-7.305-1.81 1.81 5.495 5.495-5.495 5.495 1.81 1.81z"/>
        </symbol>
        <symbol id="icon-close" viewBox="0 0 32 32">
            <path d="m21.589 8.459-5.657 5.656-5.656-5.656-1.885 1.885L14.047 16l-5.656 5.656 1.885 1.885 5.656-5.656 5.657 5.656 1.885-1.885L17.818 16l5.656-5.656-1.885-1.885z"/>
        </symbol>
        <symbol id="icon-envelope" viewBox="0 0 31 32">
            <path d="M25.6 5.333H5.12C3.708 5.333 2.56 6.529 2.56 8v16c0 1.471 1.148 2.667 2.56 2.667H25.6c1.412 0 2.56-1.196 2.56-2.667V8c0-1.471-1.148-2.667-2.56-2.667zM25.6 8v.681l-10.24 8.297L5.12 8.682v-.683H25.6zM5.12 24V12.059l9.454 7.66c.224.183.501.283.786.283s.562-.1.786-.283l9.454-7.66L25.603 24H5.12z"/>
        </symbol>
        <symbol id="icon-star-filled" viewBox="0 0 31 32">
            <path d="M14.171 5.904c.44-1.045 1.939-1.045 2.379 0l2.597 6.168c.186.441.605.742 1.086.78l6.74.534c1.142.09 1.605 1.498.735 2.235l-5.136 4.346c-.367.31-.527.798-.415 1.262l1.569 6.498c.266 1.101-.946 1.971-1.924 1.381l-5.771-3.482a1.3 1.3 0 0 0-1.343 0l-5.771 3.482c-.978.59-2.19-.28-1.924-1.381l1.569-6.498a1.264 1.264 0 0 0-.415-1.262l-5.136-4.346c-.87-.736-.407-2.144.735-2.235l6.741-.534a1.286 1.286 0 0 0 1.086-.78l2.597-6.168z"/>
        </symbol>
        <symbol id="icon-star-outline" viewBox="0 0 31 32">
            <path stroke-width="1.28" d="M14.76 6.152c.22-.523.98-.523 1.2 0l2.596 6.168c.28.664.909 1.113 1.626 1.17l6.74.534a.628.628 0 0 1 .372 1.107l-5.136 4.346c-.55.465-.793 1.2-.624 1.901l1.57 6.498c.127.527-.463.99-.973.683h-.001l-5.769-3.481a1.945 1.945 0 0 0-2.005 0l-5.77 3.481c-.51.308-1.1-.155-.973-.683l1.57-6.498a1.905 1.905 0 0 0-.624-1.901l-5.136-4.346a.629.629 0 0 1 .373-1.107l6.74-.534a1.927 1.927 0 0 0 1.626-1.17l2.596-6.168z"/>
        </symbol>
        <symbol id="icon-logo" viewBox="0 0 55 32">
            <path d="M22.447 8.791c-0.267-2.735-2.705-4.733-5.439-4.458-2.724 0.274-4.713 2.7-4.446 5.425s2.687 4.72 5.413 4.461c2.735-0.26 4.74-2.692 4.472-5.427zM18.745 5.479c0.061-0 0.106 0.012 0.162 0.028l0.012 0.003c0.022 0.111-0 0.162-0.058 0.256-0.101 0.165-0.214 0.323-0.327 0.481-0.199 0.279-0.398 0.558-0.535 0.875-0.296 0.689-0.227 1.492-0.157 2.303 0.061 0.71 0.122 1.427-0.060 2.079-0.219 0.784-0.769 1.297-1.457 1.68-0.038 0.006-0.080 0.003-0.121 0-0.008-0.001-0.017-0.001-0.025-0.002-0.005-0-0.010-0.001-0.016-0.001l-0.007-0.013c-0.039-0.075-0.042-0.079-0.013-0.164 0.037-0.11 0.11-0.223 0.179-0.329 0.026-0.041 0.052-0.080 0.075-0.118 0.239-0.399 0.474-0.829 0.547-1.294 0.092-0.581 0.043-1.178-0.006-1.776-0.062-0.758-0.124-1.517 0.101-2.241 0.276-0.889 0.924-1.353 1.703-1.768z"></path>
            <path d="M34.14 23.22c-0.31-2.655-2.713-4.556-5.368-4.247-2.656 0.309-4.558 2.713-4.248 5.37s2.715 4.557 5.371 4.247c2.655-0.311 4.555-2.715 4.245-5.369zM28.78 20.086c0.642-0.048 1.243 0.109 1.761 0.494 0.838 0.623 1.266 1.654 1.408 2.662 0.15 1.064 0.135 2.543-0.558 3.434-0.378 0.486-0.857 0.683-1.449 0.756-0.631 0.061-1.263-0.108-1.779-0.476-0.815-0.588-1.234-1.555-1.386-2.523-0.173-1.103-0.167-2.647 0.548-3.578 0.38-0.495 0.855-0.692 1.455-0.769z"></path>
            <path d="M6.562 0.342c0.861-0.113 1.836-0.024 2.674 0.187 0.51 0.129 1.018 0.303 1.539 0.377 0.3 0.042 0.614 0.039 0.916 0.044 0.049 0.839 0.211 2.849 0.114 3.588-0.154 0.030-0.273 0.022-0.428 0-0.159-0.184-0.234-0.595-0.329-0.834-0.35-0.874-1.043-1.546-1.912-1.902-1.089-0.446-2.388-0.389-3.461 0.074-1.127 0.487-2.045 1.461-2.492 2.602-0.693 1.767-0.688 4.035 0.089 5.774 0.539 1.205 1.497 2.266 2.751 2.736 1.197 0.449 2.498 0.316 3.645-0.209 0.512-0.261 0.986-0.65 1.29-1.142 0.172-0.278 0.299-0.808 0.572-0.988l0.076 0.030c0.294 0.371 0.403 1.532 0.5 2.031-1.105 0.974-2.439 1.62-3.904 1.813-1.918 0.252-3.92-0.135-5.47-1.331-1.411-1.089-2.268-2.8-2.48-4.553-0.246-2.037 0.204-4.093 1.493-5.715 1.188-1.494 2.936-2.368 4.816-2.583z"></path>
            <path d="M42.586 5.181c-0.514-0.128-1.135-0.197-1.661-0.132-1.229 0.121-2.279 0.594-3.077 1.558-0.885 1.079-1.304 2.465-1.168 3.854 0.122 1.184 0.667 2.361 1.611 3.11 0.992 0.787 2.394 1.009 3.625 0.863 1.093-0.129 2.062-0.601 2.74-1.484 0.31-0.403 0.535-0.859 0.713-1.334-0.022-0.021-0.044-0.042-0.066-0.063-0.105-0.103-0.213-0.209-0.353-0.252-0.012 0.006-0.023 0.010-0.033 0.014-0.043 0.018-0.060 0.025-0.096 0.079-0.585 0.861-1.254 1.43-2.301 1.626-0.815 0.153-1.626 0.012-2.31-0.468-0.544-0.382-0.974-0.946-1.225-1.56 1.251-0.742 2.611-1.493 4.051-1.788 0.285-0.058 0.576-0.091 0.865-0.124 0.305-0.034 0.608-0.069 0.903-0.132 0.198-0.043 0.34-0.083 0.407-0.293 0.169-0.526-0.097-1.386-0.363-1.84-0.485-0.83-1.336-1.406-2.261-1.636zM41.313 6.018c0.234 0.001 0.485 0.018 0.71 0.080 0.381 0.105 0.726 0.331 0.912 0.688 0.128 0.247 0.229 0.643 0.128 0.913-0.085 0.227-0.268 0.382-0.471 0.502-0.253 0.149-0.557 0.245-0.849 0.338-0.099 0.031-0.197 0.063-0.292 0.095-0.511 0.176-1.014 0.369-1.501 0.604-0.111 0.050-0.252 0.138-0.402 0.233-0.281 0.178-0.595 0.376-0.808 0.372-0.113-0.095-0.142-0.174-0.154-0.317-0.079-0.946 0.302-2.023 0.914-2.739 0.448-0.524 1.152-0.717 1.813-0.771z"></path>
            <path d="M51.788 5.090c-0.363-0.050-0.731-0.064-1.098-0.041-1.247 0.102-2.301 0.556-3.117 1.527-0.898 1.075-1.328 2.464-1.197 3.858 0.11 1.155 0.649 2.336 1.559 3.077 0.979 0.798 2.44 1.072 3.672 0.932 1.097-0.124 2.082-0.639 2.767-1.51 0.315-0.404 0.562-0.857 0.73-1.341-0.021-0.018-0.043-0.039-0.066-0.060-0.114-0.104-0.248-0.226-0.391-0.238-0.587 0.884-1.29 1.506-2.354 1.72-0.802 0.162-1.581 0.044-2.27-0.413-0.591-0.392-1.021-0.964-1.327-1.597 1.353-0.92 3.017-1.625 4.625-1.923 0.2-0.037 0.402-0.053 0.605-0.068 0.168-0.013 0.335-0.026 0.501-0.051 0.216-0.033 0.435-0.082 0.483-0.329 0.136-0.696-0.138-1.533-0.549-2.093-0.62-0.844-1.549-1.307-2.572-1.449zM50.6 6.052c0.419-0.033 0.827-0.054 1.232 0.094 0.387 0.142 0.7 0.421 0.868 0.8 0.111 0.249 0.16 0.529 0.055 0.788-0.060 0.147-0.17 0.28-0.297 0.373-0.305 0.223-1.057 0.485-1.712 0.714-0.323 0.113-0.622 0.217-0.831 0.304-0.336 0.15-0.661 0.332-0.984 0.514-0.18 0.101-0.359 0.201-0.54 0.296-0.152-0.927-0.057-1.872 0.448-2.684 0.417-0.671 1.005-1.026 1.762-1.199z"></path>
            <path d="M19.531 16.212c0.992-0.006 3.78-0.129 4.532 0.069 0.063 0.086 0.057 0.088 0.049 0.195-0.174 0.293-0.545 0.411-0.802 0.621-0.149 0.121-0.283 0.293-0.327 0.483-0.166 0.7-0.101 1.51-0.101 2.229l-0.020 3.038c-0.005 0.725 0.017 1.466-0.068 2.186-0.122 1.031-0.576 1.989-1.409 2.63-1.038 0.8-2.487 0.979-3.756 0.806-1.111-0.15-2.195-0.632-2.886-1.544-0.627-0.827-0.786-1.793-0.653-2.805 0.035-0.179 0.080-0.351 0.144-0.522 0.236-0.63 0.699-1.148 1.323-1.416 0.659-0.282 1.49-0.303 2.152-0.018 0.322 0.138 0.525 0.377 0.644 0.707 0.072 0.202 0.096 0.374 0.004 0.57-0.267 0.252-0.868-0.086-1.241 0.019-0.344 0.096-0.608 0.338-0.773 0.651-0.286 0.543-0.293 1.253-0.088 1.824 0.182 0.509 0.596 0.92 1.082 1.146 0.578 0.267 1.39 0.334 1.994 0.109 0.468-0.174 0.811-0.546 1-1.003 0.163-0.394 0.239-0.846 0.277-1.268 0.086-0.951 0.193-6.697-0.016-7.319-0.221-0.656-0.975-0.675-1.148-1.074 0-0.096 0.002-0.163 0.049-0.248 0.012-0.023 0.025-0.044 0.038-0.066z"></path>
            <path d="M40.032 26.857c0.423-1.047 0.788-2.127 1.178-3.187 0.304-0.826 0.68-1.68 0.866-2.54 0.040-0.183 0.057-0.364 0.006-0.547-0.156-0.558-0.876-0.514-1.039-0.945 0.023-0.095 0.009-0.136 0.1-0.194 0.166-0.107 3.107-0.118 3.467-0.072 0.12 0.015 0.206 0.042 0.284 0.138 0.008 0.207-0.042 0.302-0.228 0.407-0.299 0.169-0.68 0.255-0.904 0.533-0.353 0.437-1.682 4.18-2.010 5.031l-1.096 2.844c-0.276 0.714-0.534 1.491-0.945 2.14-0.249 0.393-0.584 0.774-0.99 1.008-0.593 0.34-1.344 0.403-1.998 0.219-0.509-0.143-0.974-0.459-1.218-0.938-0.193-0.379-0.24-0.884-0.099-1.288 0.106-0.301 0.35-0.551 0.64-0.68 0.188-0.084 0.496-0.156 0.691-0.051 0.463 0.252 0.161 1.084 0.339 1.528 0.060 0.149 0.148 0.254 0.3 0.316 0.248 0.1 0.678-0.037 0.901-0.145 0.755-0.368 1.072-1.555 1.323-2.288-0.317 0.006-0.683 0.045-0.995-0.010-0.049-0.008-0.11-0.021-0.153-0.047-0.103-0.060-0.17-0.169-0.223-0.273-0.246-0.48-0.413-1.039-0.606-1.544l-1.198-3.153c-0.236-0.62-0.45-1.266-0.739-1.862-0.216-0.444-0.504-0.898-0.948-1.144-0.22-0.121-0.51-0.12-0.659-0.341-0.026-0.15 0.001-0.242 0.048-0.386 0.794-0.032 3.988-0.115 4.576 0.048 0.032 0.112 0.038 0.267-0.007 0.377-0.070 0.174-0.407 0.228-0.562 0.29-0.167 0.067-0.312 0.169-0.377 0.345-0.072 0.194 0.024 0.507 0.080 0.704 0.243 0.861 0.635 1.714 0.958 2.552 0.404 1.047 0.768 2.134 1.239 3.154z"></path>
            <path d="M34.408 1.124c0.705-0.037 1.375 0.053 1.991 0.423 0.45 0.269 0.831 0.675 0.944 1.2 0.062 0.285 0.042 0.586-0.123 0.834-0.18 0.269-0.544 0.478-0.863 0.518-0.192 0.024-0.417-0.002-0.571-0.126-0.357-0.288-0.191-0.801-0.258-1.195-0.037-0.212-0.147-0.391-0.331-0.506-0.278-0.174-0.712-0.232-1.027-0.144-0.275 0.076-0.474 0.271-0.601 0.522-0.404 0.797-0.18 1.839 0.069 2.645 0.846 0.021 1.696 0.004 2.543 0.003 0.002 0.359-0.004 0.712-0.031 1.071-0.818-0.001-1.637-0.013-2.454 0.018-0.052 0.84-0.032 1.694-0.037 2.536-0.008 1.26-0.132 2.651 0.157 3.878 0.044 0.114 0.092 0.221 0.151 0.327 0.255 0.463 0.412 0.414 0.865 0.563 0.155 0.051 0.244 0.114 0.311 0.257-0.006 0.122-0.025 0.168-0.097 0.266-0.040 0.025-0.056 0.040-0.109 0.050-0.164 0.031-4.109 0.014-4.332-0.023-0.153-0.026-0.261-0.060-0.358-0.19 0.064-0.372 0.478-0.346 0.727-0.587 0.286-0.276 0.429-0.646 0.508-1.028 0.173-0.832 0.106-1.774 0.103-2.624l-0.016-3.438-1.613-0.006c-0.033-0.355-0.035-0.714-0.044-1.070l1.607-0.001c-0.079-0.24-0.157-0.49-0.192-0.741-0.102-0.742 0.070-1.497 0.526-2.098 0.607-0.8 1.583-1.208 2.554-1.334z"></path>
            <path d="M27.731 1.125c0.65-0.055 1.274-0.007 1.857 0.312 0.466 0.255 0.864 0.676 1.007 1.197 0.089 0.323 0.098 0.732-0.084 1.026-0.129 0.208-0.345 0.33-0.582 0.375-0.216 0.040-0.502 0.040-0.682-0.105-0.341-0.274-0.113-0.801-0.189-1.164-0.046-0.219-0.222-0.404-0.413-0.509-0.301-0.165-0.735-0.185-1.061-0.087-0.27 0.081-0.475 0.258-0.599 0.512-0.36 0.735-0.087 1.86 0.16 2.591 0.81 0.048 1.638 0.011 2.451 0.015 0.020 0.362 0.002 0.718-0.020 1.080-0.825-0.002-1.65 0.001-2.475 0.009-0.038 1.032-0.053 2.064-0.046 3.096-0.003 1.063-0.109 2.258 0.203 3.284 0.343 0.751 1.054 0.877 1.222 1.279-0.026 0.073-0.015 0.086-0.088 0.129-0.26 0.155-4.211 0.125-4.564 0.041-0.014-0.048-0.032-0.103-0.033-0.153-0.011-0.313 0.483-0.445 0.673-0.632 0.264-0.261 0.395-0.744 0.456-1.104 0.138-0.809 0.094-1.7 0.093-2.519l-0.007-3.423-1.609-0.007c-0.024-0.357-0.024-0.712-0.023-1.070 0.513 0.006 1.027 0.005 1.54-0.002-0.079-0.261-0.163-0.524-0.204-0.795-0.11-0.737 0.050-1.464 0.501-2.063 0.605-0.804 1.547-1.177 2.515-1.313z"></path>
        </symbol>
    </defs>
</svg>


